<?xml version="1.0" standalone="no"?>
<!DOCTYPE svg PUBLIC "-//W3C//DTD SVG 20010904//EN"
 "http://www.w3.org/TR/2001/REC-SVG-20010904/DTD/svg10.dtd">
<svg version="1.0" xmlns="http://www.w3.org/2000/svg"
 width="500.000000pt" height="500.000000pt" viewBox="0 0 500.000000 500.000000"
 preserveAspectRatio="xMidYMid meet">

<g transform="translate(0.000000,500.000000) scale(0.100000,-0.100000)"
fill="#000000" stroke="none">
<path d="M1496 4184 c-167 -30 -323 -114 -449 -241 -116 -118 -190 -250 -227
-407 -20 -83 -21 -110 -17 -1063 3 -908 4 -982 21 -1038 63 -211 183 -379 350
-489 100 -67 170 -98 279 -126 83 -20 96 -21 1073 -18 l989 3 97 34 c298 103
510 341 573 643 13 58 15 226 15 1007 0 611 -4 958 -11 997 -64 365 -356 652
-715 704 -42 6 -428 9 -984 9 -748 -1 -929 -3 -994 -15z m1883 -284 c237 -57
427 -235 510 -478 l26 -77 0 -845 0 -845 -26 -77 c-42 -121 -93 -204 -183
-293 -66 -66 -99 -89 -176 -127 -166 -81 -135 -79 -1065 -76 l-820 3 -81 28
c-225 76 -406 272 -464 504 -20 77 -20 105 -18 914 l3 834 27 73 c43 116 85
181 177 273 112 111 220 168 386 203 11 2 380 4 820 5 771 1 803 0 884 -19z"/>
<path d="M1830 3050 l0 -140 -135 0 -135 0 0 -135 c-1 -74 -1 -202 -1 -285 0
-82 0 -211 1 -285 l0 -135 135 0 135 0 0 -140 0 -140 405 0 405 0 0 140 0 140
-405 0 -405 0 0 420 0 420 405 0 405 0 0 140 0 140 -405 0 -405 0 0 -140z"/>
<path d="M3300 2915 l0 -135 -135 0 -135 0 0 -140 0 -140 -140 0 -140 0 0
-140 0 -140 140 0 140 0 0 140 0 140 135 0 135 0 0 135 0 135 135 0 135 0 0
140 0 140 -135 0 -135 0 0 -135z"/>
<path d="M3300 2340 l0 -140 135 0 135 0 0 140 0 140 -135 0 -135 0 0 -140z"/>
</g>
</svg>
